<?xml version="1.0" encoding="UTF-8"?><svg id="Layer_1" xmlns="http://www.w3.org/2000/svg" viewBox="0 0 1176 954"><path d="m92,146.37c-1.44,5.02-5.75,7-6.65,11.26-.44,2.11-2.11,2.48-3.3,1.54-1.09-.85-3.54-.95-2.55-3.94,2.1-6.37,5.46-12.03,8.86-17.68,6.48-10.78,12.97-21.57,19.79-32.13,4.59-7.12,10.94-12.85,16.48-19.22,10.4-11.93,22.98-19.92,38.43-24.68,13.19-4.06,26.21-2.77,39.35-3.24,23.75-.86,47.42,1.22,71.12,2.01,11.79.39,23.6.49,35.4.6,18.08.17,36.15.26,54.23.36,6.65.04,13.31-.27,19.94.08,24.54,1.27,49.1.73,73.64.52,12.25-.11,24.49-1.48,36.72-2.24,5.64-.35,11.9-1.32,17.43,2.18,2.67,1.69,5.73,2.23,9.06.99,6.56-2.44,12.69-.69,19.19,1.45,13.2,4.33,25.53,10.34,37.67,16.9,10.73,5.81,18.81,14.09,23.01,25.69,4.43,12.26,12.75,22.61,17.01,34.93,1.62,4.69,4.19,9.07,4.41,14.23.12,2.74,1.27,5.35-1.6,7.72-.99.82-.69,3.47-.61,5.27.54,12.45.46,24.93-.39,37.33-1.49,21.72.96,43.38.24,65.07-.53,15.91,0,31.83-.46,47.76-.77,27.36-.14,54.76-.17,82.14,0,1.93.07,3.34,2.01,4.49,1.46.87,1.7,2.75,1.46,4.52-1.13,8.36-2.73,16.69-3.24,25.08-.6,9.88-1.73,19.75-.93,29.72.58,7.26-.83,14.54-.79,21.87.09,13.03-.51,26.07-.85,39.1-.12,4.65-.76,9.02-5.78,11.21-1.94.85-2.01,2.49-1.15,4.21,3.28,6.53.45,11.51-4.19,15.89-1.47,1.39-2.21,2.17-1.12,4.5,2.6,5.56,1.44,8.36-4.33,10.83-4.56,1.95-8.3,4.78-11.68,8.3-3.02,3.14-6.07,6.3-11.22,4.35-1.76-.67-3.09.84-4.34,1.95-12.11,10.7-26.82,14.75-42.4,16.49-3.45.38-6.75-1.25-10.36-.72-2.4.35-2.9.6-2.1,2.87,4.76,13.52,8.82,27.27,13.84,40.71,3.98,10.68,7.09,21.69,10.68,32.52,3.2,9.63,6.53,19.24,9.72,28.86,3.72,11.2,7.78,22.32,11.04,33.71,3.32,11.6,8.43,22.69,11.74,34.29,2.85,9.98,6.6,19.65,9.41,29.63,2.31,8.21,5.64,16.13,8.35,24.24,5.97,17.87,11.88,35.75,17.71,53.67.86,2.65,1.46,5.49.22,8.29-.43.96-.54,1.99.11,2.85,1.13,1.51,3.61,2.7,1.87,4.99-2.07,2.72-4.16,5.3-8.08,6.04-10.52,1.99-21.02.84-31.56.65-11.58-.21-23.16-.44-34.76-.06-7.56.25-15.3.9-22.84-1.13-2.77-.75-5.17-1.86-5.34-5.05-.11-2.09-1.16-3.15-2.9-3.49-6.4-1.23-8.16-6.12-10.09-11.47-7.13-19.77-12.72-40.04-20.14-59.73-5.23-13.88-8.25-28.69-14.39-42.17-2.44-5.36-3.45-10.45-4.88-15.88-3.4-12.86-8.12-25.44-13.07-37.82-3.06-7.66-6.72-15.22-11.72-21.91-5.73-7.65-7.7-16.78-10.51-25.59-3.02-9.49-4.67-19.31-6.69-29.03-3.18-15.25-9.11-29.46-15.89-43.37-3.57-7.33-9.02-9.18-17.51-8.9-14.22.48-28.57.41-42.87-1.03-11.94-1.2-24.03-.95-36.06-1.02-18.89-.12-37.8,2.5-56.66.62-12.08-1.2-24.41-1.61-35.88-6.57-3.58-1.55-3.92,1.28-3.96,3.69-.15,8.66.04,17.32-.27,25.97-.58,16.27.65,32.52-.31,48.82-.88,14.87.16,29.85-.09,44.77-.16,9.78-.28,19.6-.06,29.34.24,10.79-.79,21.69.73,32.35,2.48,17.42,1.26,34.9,1.42,52.32.15,15.8.17,31.71-1.46,47.51-.49,4.76,1.28,9.72-1.87,14.24-2.07,2.98-4.73,4.81-8.18,4.62-7.4-.42-14.55,1.43-21.83,1.83-13.17.74-26.28,1.87-39.55.43-9.88-1.07-19.78-2.77-29.81-2.31-1.33.06-2.68.19-3.98,0-7.08-1.02-9-3.13-8.01-10.2.52-3.7-.2-6.79-1.5-10.09-2.02-5.11-.63-10.49-.83-15.75-.6-15.7.3-31.41.02-47.09-.2-10.9-.34-21.84-.1-32.69.36-16.29.7-32.61,2.11-48.88.88-10.06,1.02-20.28.33-30.36-1.25-18.25.02-36.49-.67-54.69-.4-10.58-.12-21.16-.1-31.71.03-13.09-.43-26.19-.15-39.29.37-17.26.04-34.52.1-51.79.03-8.8.36-17.59.37-26.39.01-13.6-.51-27.22-.07-40.8.27-8.35-1.14-16.64-.57-24.86.76-11.05.13-22.04.12-33.05,0-10.41-.56-20.82-.8-31.23-.13-5.43-1.27-11.13-.78-16.17.66-6.76.09-13.41.6-20.08.16-2.06.19-3.88-2.04-4.4-4.04-.94-1.79-4.19-1.06-4.83,6.54-5.67,3.23-13.02,3.72-19.67.85-11.53-1.01-23.13.68-34.64.45-3.09-.83-5.89-1.24-8.79-.97-6.96,2.17-13.71.46-20.63-.33-1.32,0-2.77-1.8-2.96-1.35-.14-2.35.44-2.11,2.01.27,1.8-.89,1.97-2.13,1.93-1.43-.05-2.53-.77-3.16-2.09-.61-1.27-.21-2.69.91-2.99,3.65-.95,4.11-5.06,7.11-6.7,1.88-1.03,1.79-3.41,1.64-5.41-1.13-14.56-1.18-29.18-1.78-43.75-.34-8.35,1.72-17.09,2.51-25.68.15-1.65.72-3.21-.69-6.23Zm36.83,107.7c-3.32,1.13-7.48,1.77-3.89,6.83-.73,2.1-2.63,2.92-4.34,3.9-4.83,2.74-4.98,2.96-.13,5.56,2.62,1.4,5.73,2.27,8.7,2.54,6.06.55,12.04,1.28,18.37,2.95-1.08,1.93-3.72,1.89-3.57,4.32.07,1.19-1.28,1.29-2.3.73-4.54-2.51-8.28-.32-12.03,1.99-1.53.95-3.59,1.5-2.84,3.97.63,2.07,2.6,1.41,4.02,1.99,6.38,2.59,14.9-.63,19.44,7.04.17.28,1.22.2,1.8.05,1.43-.37,2.92-1.28,4.14.21.72.87.31,1.89-.33,2.74-1.12,1.49-2.59,2-4.4,1.65-1.14-.22-2.29-.43-3.44-.65-6.14-1.2-12.19-3.9-18.55-.83-1.35.65-2.02-.51-2.75-1.49-2.94-3.94-7.12-4.74-11.71-4.49-2.5.14-3.91,1.49-4.8,3.71-.93,2.32.24,3.35,2.16,4.18.53.23.89.96,1.23,1.51,3.17,5.13,10.12,4.03,13.8,8.36.18.21.96,0,1.42-.15,8.24-2.62,15.97,1.44,23.98,1.97,2.61.17,6.37,2.06,5.38,5.28-1.1,3.57-4.71,1.2-6.91.5-6.9-2.18-13.54-2.23-20.04,1.14-.94.49-2.68.54-2.41,2.07.26,1.53,1.67,1.8,3.14,1.76,3.28-.1,6.77-1,9.62,1.33.98.8,4.07-.51,2.87,2.69-.88,2.35-2.2,3.42-4.91,3-3.46-.54-6.98-1.08-10.94-.48.66.8.94,1.46,1.24,1.47,5.47.2,10.87.72,16.12,2.46,1.63.54,2.16-.73,1.73-2.05-.86-2.58.41-3.82,2.61-4.4,2.22-.58,2.26,1.47,2.85,2.71,1.54,3.21-2.49,1.74-2.87,3.35,2.96,4.01,2.06,5.88-3.2,6.4-1.81.18-3.74.35-5.48-.06-7.17-1.69-12.79.95-17.33,6.18-2.48,2.86-5.16,4.35-9,4.01-2.34-.21-4.5.94-4.69,3.44-.18,2.42,1.57,4.26,3.97,4.3,3.02.05,5.07,1.26,6.96,5.38-.06-4.46,1.21-5.92,4.03-6.38,3.11-.51,5.9-2.32,8.81-3.21,2.86-.88,3.1-4.01,5.99-4.66,3.35-.75,9.48,2.28,8.34,5.05-.76,1.85-3,4.34-5.93,5.23-4.94,1.5-9.41,3.7-13.01,7.86-3.09,3.58-6.72,6.82-11.27,8.9-4.38,2.01-5.47,6.35-2.37,9.81,2.52,2.8,5.57,1.66,8.4-.56,2.65-2.08,5.04-4.27,6.78-7.18,1.13-1.9,2.59-3.62,5.08-3.46,1.91.12,4.49-.13,4.82,2.45.26,2.03-1.9,3.97-3.43,3.52-4.97-1.46-4.42,3.05-5.83,5.07-1.34,1.93-.93,4.19,2.29,3.53,2.01-.41,3.86.84,5.9.01,1.53-.62,3.3.23,3.74,1.66.65,2.14-1.59,2.28-2.86,2.54-2.09.42-4.35.81-6.42.46-5.97-1-10.65,1.38-14.95,5.05-1.18,1.01-3.33,3.22-1.89,3.63,2.46.7,1.44,6.29,5.93,3.6,3.37-2.02,7.36-1.49,11.18-.51,1.97.51,2.83,1.59,2.85,3.49.02,2.6-1.92,1.53-3.23,1.75-4.02.67-7.96-.08-11.92-.51-2.25-.24-3.58.67-3.88,2.85-.34,2.44,1.59,2.05,3,2.17,7.99.71,15.87-.32,23.63-2.05,2.39-.53,4.36-.7,5.72,1.34,1.23,1.85.41,3.74-.61,5.6-3.94,7.17-10.27,7.48-17.27,6.38-6.63-1.05-7.18-.56-8.33,6.47,6.87-2.75,13.72-.83,20.53-.91,1.91-.02,2.57,1.38,2.81,2.92.27,1.71-.84,2.37-2.37,2.51-8.46.78-16.75,4.19-25.46,1.54-.86-.26-3.03-1.31-3,1.1.08,6-2.07,12.31,2.65,18.65.84-2.69,3.86-3.31,4.4-3.97,3.58-4.34,8.36-3.16,12.68-3.84,1.78-.28,3.87-.06,4.5,2.21.65,2.37-1.12,3.06-2.89,3.88-2.48,1.16-3.47,3.08-.53,4.65,4.07,2.18,1.35,3.16-.58,4.03-2.91,1.31-6.05,1.7-9.26,1.79-10.63.33-11.5,1.33-10.91,12.08.03.5.06,1.01-.02,1.5-1.39,8.69,1.22,8.56,9.12,9.4,4.16.44,8.56-1.05,12.58,1.59-2.25,2.69-4.93,4.37-8.5,4.43-2.99.06-5.99.36-8.98.26-2.16-.07-4.21.14-5.16,2.18-1.14,2.46.33,5.11.1,7.72-.05.6,1.29.85,2.15.38,7.31-4,15.67-2.71,23.4-4.61.77-.19,1.78-.32,2.24.6.47.93-.57,1.4-.87,2.1-1.71,3.97-5.12,5.32-8.94,5.53-4.37.24-8.07,1.3-10.93,4.94-.89,1.14-2.57,3.13-4.1,2.19-2.04-1.24-3.17-1.19-3.37,1.08-.17,1.96.95,3.54,3.28,3.57.99,0,2-.03,2.97-.22,5.55-1.13,11.09-2.25,16.61-3.51,2.27-.52,4.33-.18,6.23.98,1.16.71,1.6,1.43-.05,2.52-6.48,4.29-13.99,6.03-21.04,8.89-1.65.67-4.31,1.21-3.8,3.24.63,2.52,3.15.89,4.72.59,2.43-.47,4.91-1.16,7.09-2.29,2.47-1.28,4.97-1.68,7.65-1.91,4.35-.38,8.88.4,12.69-3.1,1.47-1.35,4.2-.67,6.13.61.48.32,1.13,1.23,1,1.46-1.06,1.86-3.13,1.49-4.82,1.99-2.91.86-6.67.33-8.73,1.59-6.32,3.87-12.58,7.57-19.83,9.33-2.79.68-5.29,2.01-7.73,3.43-1.57.92-2.88,2.41-.73,3.83,2.08,1.37,2.14,1.71.06,3.35-2.15,1.69-2.93,5.08-1.36,7.23,2.29,3.14,5.73,1.36,8.69.34,2.4-.82,4.63-1.73,1.1-4.18-.09-.06.35-1.27.79-1.64,2.09-1.78,4.69-2.94,7.29-2.57,2.09.29,5.18,1.46,5.7,2.96.72,2.11-2.43,3.31-4.13,4.27-3.51,1.99-5.01,4.59-4.42,8.74,1.35-.15,2.65-.49,3.92-.39,2.51.18,5.87-1.11,7.04,2.15,1.15,3.21-1.87,4.68-4.01,6.13-5.6,3.81-10.44,8.75-16.88,11.31-1.38.55-2.28,1.39-1.67,3.07.72,1.98,2.22.94,3.38.8.77-.09,1.45-.93,2.21-1,4.46-.46,9.39-1.97,13.22.33,2.84,1.7-.48,5.92.3,8.68,1.81,6.41-2.87,4.66-5.77,4.99-1.43.16-2.96-.33-4.41-.64-3.16-.69-6.31-.19-9.41.24-1.96.27-3.04,1.77-3.08,3.95-.03,1.52.29,3.08,1.84,2.99,3.28-.2,6.73,1.19,9.8-.38,1.99-1.01,3.18.04,4.88.37,5.23,1.01,9.74,8.21,16.05,2,1.36-1.33,3.17.56,3.61,2.26.53,2.08-.94,2-2.44,1.81-.56-.07-1.21.3-1.78.55-5.82,2.58-11.48,6.75-17.48,7.3-5.51.5-8.22,6.73-13.94,5.07-.11-.03-.58.49-.54.7.43,2.42-.92,5.13.83,7.28,1.6,1.97,2.81-.86,4.41-.7.87.09,2.03-.37,2.69-.98,1.59-1.49,3.03-1.53,4.11.3,1.1,1.85.42,3.52-1.23,4.81-1.96,1.53-4.5,1.82-6.63,1.78-4.91-.09-1.54,2.91-1.97,4.41-.97,3.41,1.94,1.73,3.04,1.99.98.23,2.19-.49,3.3-.8,3.53-1.01,3.25,2.61,4.64,4.05,1.64,1.69-.25,3.66-1.64,3.77-5.76.49-10.46,3.12-15.02,6.31-.95.67-3.24.19-2.56,2.09.52,1.45,2.41.89,3.55.26,2.61-1.43,5.55-.69,8.29-1.51,1.83-.55,4.29.1,5.05,2.24.7,1.99-1.78,1.98-2.77,2.93-1.05,1.01-3.04,1.45-3.58,2.09-2.17,2.58-6.75.61-7.21,2.5-.75,3.08-2.61,5.63-3.68,9,5.05-.96,7.78-5.18,12.38-6.05,2.4-.45,4.8-1.89,5.71,1.03.8,2.57,1.76,5.86-2.36,7.58-3.4,1.42-6.96,2.85-9.5,6.15,4.44-.25,8.79-.68,13.15-.51,2.06.08,4.16-.2,4.27,2.8.1,2.65-1.41,4.49-3.74,4.44-5.38-.12-9.78,3.04-14.74,3.87-5.57.92-5.3,4.18-4.97,8.77,6.22-4.28,13.22-4.12,19.66-5.97,1.2-.34,4.01-1.07,4.18,1.12.16,2.11-.68,4.61-3.81,4.99-5.26.63-10.49,1.57-15.76,2.18-2.15.25-4.03.49-4.41,3.06-.32,2.16-.8,5.03.78,6.12,1.41.97,4.19.54,6.03-.97.64-.53,1.35-.99,1.94-1.57,2.39-2.3,4.85-2.96,8.15-1.53,2.8,1.21,5.66.27,8.42-1.3,3.74-2.13,7.41-4.73,12.1-4.39,1.51.11,2.56.84,2.92,2.27.28,1.11-.33,1.94-1.42,2.3-8.53,2.8-15.86,7.88-23.11,12.89-3.29,2.27-8.08,2.84-10.08,7.4,2.82.73,4.53-.66,6.36-1.75,5.47-3.27,10.68-7.09,16.91-8.85,1.59-.45,4.11-1.59,4.79.78.6,2.08.39,4.77-2.5,5.82-.78.28-1.58.51-2.36.82-3.88,1.51-7.73,2.9-9.51,7.33-.8,1.98-2.76,2.83-5.17,3.3-4.38.85-7.46,4.15-10.21,7.47-1.02,1.23-1.32,3.23-.11,4.68,1.16,1.4,2.39.03,3.6-.33,4.78-1.45,9.33-3.44,13.83-5.55,2.12-1,3.96-.7,4.7,1.88.25.85-5.31,9.97-6.22,9.99-6.46.17-10.53,5.42-16.1,7.42-1.89.68-1.86,2.21-1.88,3.65-.02,1.16.86,3.12,1.53,2.78,4.14-2.11,7.64.85,11.44,1,1.18.05,2.68-1.3,3.18.91.49,2.14-1.26,2.37-2.59,2.97-2.8,1.25-5.59,2.54-8.51,3.87,3.97,3.31,7.95,4.03,12.38,2.4.92-.34,1.97-.31,2.96-.42,1.01-.12,2.16-.2,2.68.82.72,1.41-.56,2.15-1.44,2.8-1.18.89-2.47,1.7-3.81,2.33-4.22,1.97-8.49,3.82-12.73,5.76-.88.4-1.96.8-2.04,1.97-.09,1.29,1.01,1.65,1.96,1.87,2.59.62,4.08,2.1,3.69,5.23,9.75-3.87,18.35-9.35,28.86-9.61-.13,1.42,1.08,4.45-1.12,4.7-7.89.9-13.93,5.78-20.87,8.67-4.74,1.98-8.02,5.36-11.46,9.31,3.05,1.06,4.14-1.21,5.83-1.99,1.34-.61,2.68-.76,3.7.35,1.25,1.35.2,2.63-.76,3.45-2.74,2.37-5.53,4.58-9.1,5.8-4.01,1.37-6.5,7.83-5.14,12.33,1.21,4.01,4.04-.7,5.83,1.1-.65,2.51-2.44,4.27-3.83,6.31-1.44,2.12-1.55,4.27,1.95,4.41,2.03.08,3.86,0,6.03-.84,3.11-1.2,5.87-5.7,10.27-2.34.91.7,1.91-.89,2.47-1.95.63-1.18,1.23-2.47,2.87-2.37.95.06,1.49.7,1.53,1.65.07,1.73-1.06,2.73-2.36,3.55-.7.44-1.54.68-2.21,1.16-6.17,4.42-12.56,8.57-18.38,13.42-4.12,3.44-2.11,8.55,3.63,10.57,1.82.64,5.46.48,3.82,3.63-2.26,4.32.48,3.82,2.99,4.26,7.11,1.26,14.28-.56,21.22-.06,13.14.94,26.19,1.26,39.31.25,6.8-.52,8.32-1.69,7.9-8.45-.69-11.14.91-22.2.65-33.32-.35-15.26-.6-30.53-.82-45.8-.04-2.69-.66-4.46-3.84-4.53-2.45-.05-3.14-1.87-3.52-4.08-1.11-6.47.02-12.94,1.1-19.13,2.96-16.96,5.12-34.02,5.64-51.14.57-19.14-.05-38.34-.77-57.5-.63-16.56-1.93-33.13-1.02-49.68.47-8.64,4.3-16.91,2.84-25.94-.38-2.34,1.67-5.27,5.37-5.17,11.8.34,23.61.77,35.42.81,16.4.06,32.79-.07,49.19-.35,10.28-.18,20.68,1.24,30.77.32,13.25-1.2,26.37.35,39.56-.45,11.82-.72,23.76-.47,35.58.38,7.18.52,16-3.92,20.94,6.4,1.91-5.8,6.41-5.67,10.08-7.36,6.46-2.97,6.2,3.25,9.05,5.2-2.66,2.82-6.53,2.11-9.24,4.08-.97.71-3.07,1.05-2.07,2.72.89,1.49,2.3.14,3.5-.37,5.02-2.13,10.03-4.31,15.15-6.17,2.25-.82,4.99-.79,5.84,2.1.78,2.65-1.37,3.62-3.54,4.5-6.17,2.49-12.33,5.06-17.93,8.71-1.96,1.28-5.73,1.97-4.59,4.9,1.05,2.71,4.7,1.52,7.29,1.67.31.02.63-.3.94-.3,4.06.05,6.32-3.3,9.41-5.04,1.28-.72,2.41-1.08,3.74-.5.63.27,1.31.81.86,1.52-1.83,2.9-1.79,6.87-4.42,9.15-3.46,2.99-2.3,3.9,1.35,4.15,1.74.12,3.79.23,4.13,2.02.35,1.88-1.91,2.44-3.22,3.36-1.42.99-3.04,1.27-4.76,1.16-1.73-.11-3.55-.38-5.5,1.7,6.06,2.5,11.64,4.34,17.38,1.23,5.72-3.11,11.92-5.1,17.65-8.09,3.14-1.64,4.15.7,4.86,2.34.95,2.18-1.7,1.55-2.52,2.31-2.26,2.1-7.04,2.81-5.1,7.78.86,2.2-.23,3.6-2.43,3.97-2.76.46-5.35,1.59-8.31,1.34-2.81-.24-4.38,2.01-4.31,4.51.1,3.14,2.63,1.39,4.2,1.47,5.14.26,10.28.46,15.41.79,2.08.14,4.97-.12,4.93,2.88-.04,3.11-2.77,4-5.42,3.89-4.11-.16-7.66-.02-7.1,5.63.1,1.05-1.04,1.53-1.73,2.24-2.5,2.57-5.75,3.86-8.76,5.59-1.38.79-4.53,1.24-3.15,3.35.98,1.51,4.45,4.13,5.75,2.75,3.71-3.92,7.24.11,10.77-.65,1.7-.37,3.97.34,5.26-.88,2.95-2.77,5.88-2.12,9.01-.9.11,1.95-4.5,4.48.89,5.51,1.51.29,4.3-.91,3.99,2.24-.25,2.57-2.3,3.37-4.72,3.5-6.64.37-13.26.92-19.9,1.22-5.37.25-5.38.13-3.47,5.19-2.37.71-5.85-.96-6.98,2.09-.71,1.93-.48,4.63,1.3,6.59,1.21,1.33,10.87,2.52,12.15,1.14,3.57-3.83,8.27-5.21,13.07-6.39,1.65-.41,3.92-2.41,4.93-.5,1.13,2.14-2.4,2.06-3.18,3.6-.12.23-.02.58-.02.88,1.76.88,3.99-2.52,5.3.27.98,2.09-1.77,2.86-2.61,4.38-.49.89-2.41.93-1.76,2.57.61,1.55,1.99,1.46,3.38,1.37,1.32-.09,2.65,0,3.97.02,1.31.02,2.75-.24,3.05,1.7.3,1.9-.8,2.77-2.33,3.31-2.03.71-4.1,1.69-6.06,2.08-2.82.56-3.17,1.2-2.25,3.78.81,2.24.18,3.71-2.96,3.43-3.93-.35-7.92-.13-11.87.11-3.01.19-4.14,1.41-3.2,4.93,1.36,5.05,3.87,9.51,5.99,14.17,3.25,7.15,3.23,15.79,9.74,21.46.28.24.27.91.25,1.38-.22,5.83,3.03,10.39,5.6,15.18,5.48,10.22,10.78,20.4,13.89,31.8,2.02,7.4,4.41,14.88,7.38,22.06,1.16,2.81,2.92,3.52,5.41,1.62,3.78-2.88,7.8-4.64,12.76-4.65,3.06,0,7.26.7,7.62-5.03,1.74,3.59,1.69,5.03-1.09,7.86-4.55,4.63-10.14,8.03-15.71,11.19-3.15,1.79-3.91,3.44-2.17,6.19,1.98,3.11,3.14,6.42,4.12,9.96,2.92,10.54,6.43,20.89,10.06,31.21.88,2.49,2.18,2.47,4.09,2.33,10.32-.72,20.69-.61,31-.64,12.08-.04,24.17.58,36.27.43,4.18-.05,4.87-1.31,2.79-4.58-3.76-5.92-5.97-12.41-8.06-19.06-.9-2.86-1.34-5.77-2.08-8.62-2.34-9.03-4.62-18.07-7.05-27.08-2.37-8.77-4.03-17.91-8.7-25.67-11.04-18.35-18.32-37.82-21.47-59.04-1.47-9.92-3.43-19.95-10.71-27.85-2.1-2.28-4.2-4.92-5.24-7.78-4.52-12.41-8.69-25-11.43-37.92-3.82-17.98-8.27-35.7-15.45-52.69-1.16-2.74-3.7-5.88-2.45-8.83,2.44-5.76,2.53-11.15.11-16.82-.47-1.11-.16-2.62.01-3.92.88-6.8,7.07-8,11.69-9.09,9.34-2.2,18.33-6.84,28.09-6.21,6.44.42,10.76-8.1,17.78-3.55.12.08.8-.98,1.34-1.2,5.92-2.47,9.47-7.96,14.57-11.55,3.11-2.18,7.61-2.14,9.56-5.83,2.87-5.42,5.54-10.92,6.83-17.03,1.8-8.57,3.9-17.08,5.92-25.6,1.95-8.24,4.52-16.33,3.97-25.03-.31-4.93.29-9.91.46-14.87.3-8.79,1.24-17.62.71-26.35-.7-11.39.41-22.72-.13-34.09-.52-10.9.56-21.81-.12-32.77-.62-10.14.78-20.41.18-30.55-.78-13.34.53-26.64-.21-40-.6-10.7.02-21.56.17-32.35.25-17.56-.4-35.08-.97-52.61-.42-13.08-.8-26.17-1.76-39.22-.46-6.22-1-12.92-4.52-18.18-6.11-9.13-10.56-19.15-16.14-28.55-3.31-5.58-7.9-10.26-10.63-16.16-.38-.83-1.25-1.56-1.96-1.23-4.24,1.99-6.48-2.09-9.74-3.02-2.5-.72-2.6-4.17-4.93-4.7-9-2.08-13.57-11.1-22.09-13.85-.15-.05-.24-.25-.38-.31-4.32-1.89-6.55-6.95-11.99-7.36-7.52-.57-15.05-.24-22.55-.37-9.3-.17-18.66,1.32-28.02.7-11.39-.75-22.76-1.04-34.2-.68-9.55.3-19.14-.31-28.73-.28-5.98.02-11.98.72-17.88.36-11.54-.71-23.09-.31-34.62-.67-19.88-.62-39.81.51-59.72.67-14.57.12-29.17.38-43.71-.35-16.85-.84-33.62,1.69-50.6-.96-12.67-1.98-23.71,4.56-32.45,13.95-4.09,4.39-7.98,8.93-12.7,12.68-1.9,1.51-4.13,2.32-5.67,4.62-3.49,5.19-7.04,10.59-11.65,14.7-6.37,5.69-5.38,12.48-4.25,19.21.43,2.56.12,4.24-1.35,5.73-1.55,1.58-1.81,2.73-.58,4.67,2.04,3.2-.18,4.36-2.87,4.27-2.34-.08-4.34.52-6.07,1.78-1.92,1.41-2.52,3.72-1.59,5.81,1.02,2.31,3.12,1.16,4.83.67,1.9-.54,3.62-1.8,5.74-1.48,1.74.26,3.85-.04,4.13,2.61.29,2.73-1.64,2.92-3.52,3.08-1.81.16-3.7.5-5.44.18-4.8-.9-8.03,1.63-8.24,6.76-.1,2.47.51,3.48,3.2,2.09,5.44-2.82,11.53-3.01,17.46-3.8,2.56-.34,4.42,1.23,4.81,3.41.43,2.4-2.32,1.85-3.66,2.42-6.67,2.86-14.81,2.52-19.69,9.29-.68.94-2.96.92-2.17,2.71.52,1.18,2.07.67,3.21.48,3.91-.66,5.43.73,4.15,4.69-.45,1.4-.85,2.98.09,4.23.44.58,2.18.17,1.06,1.8-.65.94-1.32.92-2.04.26-1.37-1.25-2.88-.15-4.29-.34-1.76-.23-3.82-1.38-4.2,1.62-.36,2.79,1.31,3.42,3.71,3.24,1-.08,2.15.08,2.31,1.34.12.95-.83,1.35-1.54,1.77-.86.51-1.73,1-2.6,1.5-1.74.99-2.06,2.58-1.59,4.31.43,1.59,1.63,2.56,3.32,2.54,6.29-.04,12.61.2,18.86-.36,3.87-.34,6.5,1.98,9.72,2.99.64.2,1.09.86.55,1.59-.39.52-1,1.15-1.62.49-.61-.66-1.02-1.09-2.04-.77-8.34,2.6-17.01,2.72-25.62,3.17-1.98.1-3.18.55-3.26,2.76-.08,2.02.82,3.27,2.73,3.53,1.8.24,3.66,0,5.46.24,3.89.49,7.83-.43,11.72,1.14,4.78,1.93,9.8,3.46,15.05,1.46.88-.34,2.7-.77,2.37.22-.82,2.48-.68,3.03,1.88,2.03.88-.34,1.77-.07,1.67,1.05-.04.46-.79,1.15-1.29,1.23-3.11.47-6.17.81-9.39.2-9.85-1.89-13.44.62-12.76,8.49Zm300.6,392.6c.52,1.74,1.01,3.16,1.36,4.6,1.04,4.36,2.98,5.83,7.76,4.04,4.59-1.72,8.97-4.37,14.07-4.63.99-.05,1.61-.5,1.31-1.58-.28-1.01-.95-1.93-2.01-1.96-3.95-.13-8.09-.86-11.8.08-3.13.79-5.28,1.03-7.44-1.48-.64-.74-1.78-1.11-2.71-.53-.4.25-.41,1.11-.53,1.46ZM109.53,278.49c-.02,4.01,2.22,5.84,5.72,4.44,2.57-1.03,4.87-2.73,7.28-4.15,1.01-.6,2.08-1.25,1.63-2.69-.34-1.09-1.38-1.46-2.33-1.56-2.45-.26-4.97-.1-7.37-.56-4.13-.8-4.68,1.72-4.92,4.53Zm432.19-189.3c1.81,5.49,18.5,18.37,23.07,18.46-5.16-9.28-14.54-12.2-23.07-18.46Z"/><path d="m867.29,600.49c4.7-14.03,14.57-20.08,28.96-17.74,10.2,1.66,13.97,9.78,16.99,19.07,2.1-2,4.84-3.49,5.79-5.74,2.67-6.3,8.33-8.33,13.77-10.61,3.99-1.68,12.51,1.49,15.15,5.28,6.36,9.15,13.03,18.29,16.01,29.13,2.78,10.09,5.9,20.02,5.97,30.95.06,8.64.05,17.52,1.37,26.25.89,5.9,1.87,11.99,1.9,17.84.03,5.7,1.8,11.84.43,16.85-2.03,7.43,2.14,14.45-.56,21.56-2.36,6.24,2.19,11.72,2.64,17.78.61,8.36-.08,16.74.77,25.02,1.23,11.93-.96,23.9,1.42,35.9.88,4.44.66,9.67.35,14.61-.4,6.35,1.06,12.8,1.56,19.23.49,6.29.98,12.59,1.05,18.88.02,1.99-.26,3.71.77,5.67,2.25,4.29-1.66,7.7-2.33,11.62-.14.83-1.39,1.75-1.79,3.11-.74,2.46-3.05,3.52-5.52,3.13-4.21-.66-8.55-7.41-7.36-11.42,1.25-4.23,1.03-8.98-.02-12.55-3.39-11.53-1.94-23.23-2.95-34.81-.48-5.48-1.37-10.93-2.07-16.39-.08-.63-.37-1.33-.2-1.89,2.15-7.18-.6-13.99-1.65-20.89-.61-4.06,1.86-7.45,1.4-11.62-.78-7.03,1.17-14.64-.78-21.18-1.81-6.07-1.15-12.11-2.53-18.04-.84-3.65.99-7.94.64-11.29-.53-5.1-.71-10.22-.73-15.28-.03-8.07-1.76-16-1.44-24.1.26-6.58-.88-13.1-1.52-19.64-.49-5.01-1.41-10.23-.96-15.19.58-6.42-.93-12.43-1.85-18.54-.99-6.58-3.45-12.87-4.98-19.38-1.06-4.51-4.93-8.41-7.81-12.4-1.24-1.71-3.05-1.09-4.25.4-6.41,7.99-13.71,15.45-13.59,26.88.03,2.87.98,5.49,1.37,8.18,1.44,9.65,1.3,19.54,4.32,28.97.95,2.97-1.1,5.91-.5,9.44.63,3.71,1.77,8.06.32,12.22-.74,2.11,1.04,4.1,1.58,6.18.78,2.98,1.79,5.86-2.67,7.11-1.39.39-2.37,2.22-3.55,3.39-1.62,1.6-2.49,1.97-3.94-.66-1.24-2.26-4.73-2.46-6.18-5.46-2.81-5.82-3.57-11.95-3.35-18.12.19-5.28-1.13-10.36-1.05-15.65.09-5.84-.21-11.82-1.62-17.68-1.06-4.39-.9-9.07-1.68-13.55-1.32-7.59-3.2-15.06-4.07-22.76-.4-3.48-2.41-6.87-2.93-10.61-.51-3.64-4.21-2.56-6.53-3.32-2.61-.85-2.52,1.85-3.5,3.24-6.05,8.58-3.98,19.33-7.71,28.52-.3.74.03,1.76-.33,2.45-4.64,9.12-2.89,18.85-2.56,28.37.3,8.7,1.28,17.38,1.75,26.09.3,5.52-.6,11.24.54,16.56,1.65,7.71,1.43,15.61,1.94,23.24.52,7.7,1.2,15.7.61,23.57-.05.66-.44,1.43-.22,1.96,3.4,8.38.1,17.48,2.83,25.92.35,1.08.46,2.33.31,3.45-1.89,14.26.51,28.48.96,42.68.21,6.59-.44,13.7,2.04,20.41,1.2,3.25.02,7.17.3,10.87.57,7.53,1.94,15.04,1.94,22.55,0,4.01-2.01,8.51-5.96,10.57-3.81,1.99-6.58-1.64-9.08-3.7-2.44-2.01-1.64-5.64-1.38-8.43.49-5.23-.12-10.35-.97-15.38-1.12-6.58-1.46-13.1-1.21-19.76.16-4.42-1.33-8.77-1.42-13.31-.23-11.16-1.41-22.31-1.52-33.47-.14-14.38-1.6-28.62-2.69-42.92-.55-7.2-1.91-14.41-.91-21.99.74-5.59.83-12.02-.61-17.77-3.28-13.02-1.44-26.34-2.72-39.48-.64-6.58.57-13.67-.75-20.28-2.06-10.35-2.18-20.95-5.01-31.21-1.79-6.47-2.61-13.31-3.06-20.03-.42-6.37,5.58-10.15,11.17-7.81,1.43.6,2.23,1.12,2.25,2.75.03,1.85,1.35,2.9,3.37,4.19Z"/><path d="m802.19,876.93c-12.75-.96-22.89-7.79-29.04-18.79-3.84-6.86-5.71-15.03-5.33-23.77.21-4.95-1.18-10.56-1.72-15.91-1.39-13.73-3.43-27.54-2.72-41.26.68-13.34-1.09-26.56-.53-39.7.75-17.64-.06-35.33,1.88-52.96.74-6.72,1.22-13.8-.19-20.66-.92-4.47.99-8.72.83-13.23-.19-5.36-1.36-10.69-.71-16.14.33-2.76-.93-5.04-4.49-5.4-1.98-.2-3.08-2.3-2.69-4.18,1.14-5.5.64-11.57,5.19-16,.56-.54,1.01-1.4,1.12-2.17,1.19-8.24,7.73-11.51,13.74-15.63,5.96-4.08,11.86-7.74,19.15-8.94,10.99-1.8,20.12,1.63,27.48,9.64,6.33,6.88,10.61,15.19,15.14,23.3,1.93,3.46,4.03,6.83,5.98,10.28.73,1.29,1.9,2.79,1.73,4.04-.97,7.11,2.34,13.56,2.78,20.43.54,8.52.78,17.08,1.87,25.53.65,5.05.69,10.18,1.17,15.2.77,7.98,3.46,15.73,1.15,24.43-1.57,5.91.84,13.26.39,19.95-1.11,16.53-.07,33.09-.87,49.64-.31,6.32-1.79,12.39-1.97,18.57-.19,6.31-.54,12.94-2,18.67-1.79,7.02-2.31,14.46-5.42,21.27-2.82,6.17-6.51,11.74-10.16,17.36-2.03,3.12-5.4,5.73-8.29,7.25-4.81,2.53-9.06,5.98-14.09,8.13-2.98,1.28-5.92.28-9.37,1.02Zm-21.95-257.81c.16,4.26-.84,8.65-.37,12.7,1.36,11.95,1.51,23.94,1.32,35.85-.16,10.1.4,20.29-1.39,30.4-.73,4.11-1.22,8.66-.59,12.73,1.58,10.2,1.16,20.38.22,30.47-.6,6.42,2.99,12.82-.27,19.11,3.63,9.93,1.29,20.21,1.19,30.24-.07,7.16,2.44,13.89,1.64,21.12-.83,7.5,2.66,14.69,2.48,22.48-.17,7.19,1.72,14.71,7.56,20.39,4.03,3.92,11.05,6.13,15.23,4.39,5.52-2.3,9.58-6.64,13.42-10.7,7.84-8.29,10.87-18.76,10.27-30.22-.06-1.09.28-2.51.98-3.26,1.48-1.59,1.76-3.04.57-4.83-.88-1.32-.23-2.51.34-3.75,3.44-7.44,1.78-15.66,3.58-23.35,1.34-5.71-.18-11.39-.04-17.09.12-4.87,1.49-9.62,1.13-14.45-1.18-15.96-.88-31.94-.82-47.92.02-5.43-.5-10.93-1.1-16.13-.92-7.88-.51-15.8-1.68-23.62-1.17-7.81-1.41-15.75-3.24-23.49-2.82-11.94-9.59-21.89-15.82-32.15-3.17-5.22-6.75-9.77-13.6-8.79-3.22.46-6.23,2.23-9.42,3.08-4.46,1.19-7.57,4.62-11.05,7.14-1.48,1.08-.43,5.64-.53,8.62-.01.33,0,.67,0,1Z"/><path d="m682.06,586.23c10.28-.3,20.73,2.77,31.25,4.82,4.81.94,9.17,5.06,11.94,9.62,3.81,6.28,9.01,11.75,11.45,18.82,2.75,7.97,8.69,14.85,8.19,23.98-.06,1.15,1.08,2.37,1.7,3.54,3.12,5.93,2.3,12.87,4.91,18.96,1.09,2.54,1.12,5.45,2.46,8.04.87,1.67,1.53,3.83-.12,5.63-.82.9-.61,1.71-.29,2.73,3.07,9.83,3.51,19.87,3.36,30.15-.17,11.65-.78,23.28-.89,34.92-.1,10.9,1.83,21.91.81,32.68-.83,8.78-1.41,17.79-4.68,26.46-2.88,7.64-3.78,16.06-5.24,24.19-1.67,9.28-4.06,18.33-8.91,26.44-2,3.35-3.72,6.87-6.1,10.11-6.03,8.22-13.36,14.39-22.8,18.19-7.78,3.13-15.01,1.51-21.48-3.05-8.26-5.83-14.04-13.85-19.3-22.51-4.62-7.61-8.95-15.29-9.67-24.09-.53-6.43-3-12.43-3.04-18.89-.03-6.6-1.39-13.1-1.87-19.64-.47-6.38.92-12.82.21-19.32-.71-6.54,0-13.14-.4-19.75-.39-6.33.17-12.75-.65-19.13-.79-6.08-1.16-12.21-1.97-18.28-.42-3.17-.62-6.13.37-9.32,1.06-3.41-.38-7-.34-10.59.15-14.95-1.06-29.92-.66-44.85.21-7.94-.74-15.93.66-23.91.65-3.72-.11-7.8-.22-11.6-.24-7.89,2.66-12.97,8.25-17.97,5.73-5.13,10.23-11.6,17.36-15.21,1.69-.86,3.16-1.77,5.71-1.21Zm57.49,115.45c-.16-11.06-4.1-21.51-5.18-32.42-.58-5.82-3.54-11.05-4.45-16.67-1.66-10.26-4.91-19.97-10.49-28.49-2.33-3.56-4.22-7.09-6.16-10.8-1.63-3.1-4.04-6.76-8.57-6.79-4.36-.03-8.54-.97-12.71-2.07-4.22-1.1-8.89-1.21-12.22,1.22-11.67,8.51-15.07,20.63-13.82,34.59.64,7.13.33,14.38.06,21.49-.45,11.89-.08,23.72.56,35.54.32,5.91.09,11.74,0,17.62-.08,5.2-1.05,10.7.75,15.63,2.36,6.48.06,13.5,3.02,19.82.39.83-.1,2.42-.71,3.28-1.06,1.49-.63,2.87-.26,4.28,2.09,7.85.7,15.95.76,23.8.06,7.01-.51,14.03.41,21.1,1.44,11.17,1.78,22.38,4.58,33.51,2.97,11.83,10.02,20.72,17.26,29.58,5.05,6.18,8.24,6.02,15.24,2.13.72-.4,1.53-.63,2.26-1.01,5.32-2.74,8.75-7.32,11.67-12.31,4.1-7.01,6.49-14.61,8.84-22.41,3.33-11.02,5.14-22.27,7.29-33.46,1.73-8.98,4.19-17.91,2.63-27.42-.85-5.14.15-10.64.76-15.93.49-4.25-1.32-8.2-1.05-12.31.9-13.85-.25-27.66-.47-41.49Z"/><path d="m1036.25,713.86c2.02,3.44.43,6.66.57,9.8.25,5.78,1.74,11.55,3.11,17.23.8,3.33,1.24,6.74,1.9,10.07,1.31,6.66,1.98,13.53,2.03,20.33.06,6.9,1.02,13.74.48,20.73-.24,3.13-.15,6.82.52,10.33,2.81,14.73,9.01,28.93,8.53,44.14-.29,9.23,1.21,17.33,6.4,25.05,3.8,5.65,8.58,7.69,14.98,6.58,4.71-.82,9.39-1.43,14.2-1.53,6.82-.14,9.35-3.61,8.52-10.83-.58-5.12.78-9.52,4.64-13.07,1.06-.97,2.1-1.46,3.59-1.12,5.01,1.15,8.52,5.4,7.64,10.36-.74,4.14.6,8.12-.39,12.36-2.79,11.94-10.63,17.34-22.01,19.16-2.5.4-4.93.33-7.35.05-5.4-.61-10.38,2.11-15.75,1.69-9.21-.72-15.93-5-21.18-12.74-3.18-4.69-5.08-9.94-8.15-14.63-3.08-4.7-3.6-10.13-3.29-15.72.54-9.81.12-19.27-3-29.03-3.16-9.89-5.81-20.26-5.34-31.14.43-10.05-.45-20.17-.97-30.25-.23-4.48-2.26-8.69-2.95-13.03-.76-4.77-3.26-9.21-1.99-14.54.94-3.95-.84-8.33-1.38-12.45-1.57-11.94-2.42-23.93-3.82-35.87-.93-7.91-1-16.03-3.49-23.74-1.28-3.95-.13-8.05-.35-12.06-.42-7.75-1.15-15.73,1.3-23.46,2.42-7.64,6.25-14.14,13.38-18.26,1.85-1.07,3.76-2.05,5.63-3.08,5.6-3.08,11.08-5.56,17.96-3.8,7.71,1.98,15.73.22,23.53-.17,8.56-.43,17.02,8.68,19.44,15.43,3.01,8.39,2.68,17.19,3.27,25.99.64,9.65-3.32,17.96-3.98,27.04-.57,7.97-3.37,15.52-5.19,23.26-.68,2.88-.62,5.93-1.2,8.84-1.94,9.65-9.81,15.05-19.6,13.72-1.79-.24-3.65-.07-5.47-.04-4.15.06-8.32.39-12.45.17-4.06-.21-8.13-.66-12.33-1.78Zm44.07-80.87c.17-.83.28-1.15.3-1.48.52-9.58-5.23-15.02-14.49-13.59-4.45.69-8.73.68-13.23-.31-7.69-1.69-14.48,1.31-20.13,6.29-7.16,6.31-4.96,15.19-5.1,23.19-.12,6.54.99,13.06,1.93,19.57,1.27,8.72,2.15,17.48,3.99,26.13.52,2.44,1.34,2.76,3.28,1.92,3.26-1.41,7.09-.7,8.78,1.44,3.45,4.39,7.4,4.75,12.19,4.03,3.08-.46,6.17-1.29,9.24.57,1.43.87,3.3.32,3.39-1.6.16-3.57,2.9-7.02,2.69-9.67-.55-6.86,3.12-12.52,3.61-18.97.41-5.39,1.12-11.04,3.2-15.94,1.55-3.64,1.88-7.01,1.1-10.34-.92-3.97.44-7.9-.74-11.25Z"/><path d="m986.75,600.96c4.54-.4,6.27,1.75,6.91,5.34,1.02,5.77.9,11.63,1.5,17.39.75,7.07,2.34,14.09,3.58,21.12.55,3.14.65,6.29.8,9.34.37,7.22,1.52,14.25,2.57,21.36.79,5.39.44,11.17.82,16.76.56,8.31,4.09,16.25,2.71,24.87-1.01,6.31,1.19,12.68-.47,19.24-.77,3.04-.31,7.12.41,10.6,2.35,11.37,1.59,22.86,2.09,34.32.42,9.64-3.12,19.27.27,28.93.84,2.39-.08,5.52-.58,8.23-1.78,9.62-1.59,19.15-.5,28.9,1.05,9.41,2.67,18.68,4.28,27.98.25,1.46-.27,2.41-1.45,2.77-1.95.59-2.8,2.29-4.1,3.53-3.59,3.43-4.87,2.08-8.64-.46-7.92-5.32-2.75-13.61-5.92-19.83-3.65-7.17-1.92-14.97-2.13-22.59-.16-5.84,1.28-11.77.67-17.2-.69-6.21.07-12.19.34-18.15.47-10.35-.34-20.66.02-30.97.2-5.84-1.43-11.35-1.68-17.05-.22-5.26.1-10.53-.31-15.81-.51-6.54-.71-13.16-.41-19.71.32-6.99.14-13.9-.13-20.89-.31-8.05-3.34-15.55-3.35-23.62-.03-14.12-3.84-27.94-3.36-42.2.14-4.02-.29-8.64-1.74-12.65-1.61-4.48-.38-8.94-.25-13.26.13-4.17,4.04-6.45,8.03-6.32Z"/><path d="m989.5,475.66c7.9-.83,14.42,1.5,17.69,8.85,2.11,4.74,2.79,10.17,3.77,15.35,2.24,11.87,1.28,23.86,1.38,35.83.06,7.61-1.04,15.05-1.16,22.57-.13,8.03-6.13,11.42-11.56,13.24-11.42,3.81-23.73,4.73-35.32,1.14-5.55-1.72-9.4-7.57-10.68-13.89-1.14-5.67-1.58-11.85-.77-17.17,1.84-11.99-1.1-23.67-.72-35.54.22-6.76,2.63-12.09,4.44-17.97.14-.45.48-1.12.82-1.18,4.17-.73,6.28-5.03,9.94-6.1,7.27-2.12,14.77-3.46,22.18-5.12Zm7.49,50.6c.19-.6.61-1.23.53-1.79-1.43-9.44.24-19.16-2.9-28.47-1.42-4.21-3.09-5.62-7.21-4.05-5.9,2.25-11.91,3.65-18.23,3.26-1.95-.12-2.39,1.01-2.38,2.39.02,4.97.1,9.94.31,14.91.54,12.49,1.94,24.94,1.11,37.49-.44,6.62,2.84,9.63,9.32,9.16,2.14-.16,4.19-.22,6.39.17,5.97,1.05,12.46-2.33,12.69-6.87.3-5.89,1.52-11.78.55-17.74-.88-5.37-.93-5.55-5.18-2.43-4.07,2.99-8.24,3-12.6,1.21-3.69-1.52-5.85-7.74-3.83-10.57,4.46-6.23,13.05-6.28,17.92-.1.97,1.24,1.21,3.17,3.5,3.44Z"/><path d="m128.83,254.08c6.3-2.08,12.88-2.55,19.37-2.4,2.67.06,4.67-.68,6.88-1.56,0,0,.4.13.4.13l.41-.1c1.36,1.83.53,3.09-1.11,4.07-3.71,2.21-7.37,4.4-12.02,4.07-1.93-.14-4.13.12-5.84.95-3.88,1.88-7.8,2.47-11.99,1.67-3.59-5.06.57-5.71,3.89-6.83Z"/><path d="m321.04,172.66c7.96,1.06,17.13.75,26.23.98,10.23.27,20.54-.01,30.81-.04,14.39-.04,28.77-.01,43.16-.08,15.57-.07,31.15-.57,46.7-.19,11.05.26,22.07-.07,33.1-.28,1.93-.04,3.5.78,5.07,1.82,2.05,1.37,4.18,1.27,5.62-.85.58-.86.79-1.84,2.05-1.63,1.47.25,2.04,1.62,1.75,2.64-2.01,6.86,2.34,14.19-1.63,20.86-.83,1.38.08,2.43.53,3.69,1.45,4.05,1.27,8.02-1.83,11.36-1.06,1.13-2.3,1.96-1.36,3.77,3.36,6.47,1.29,13.08.7,19.74-.49,5.56,0,11.22.1,16.83.08,4.34-.08,8.66-1.15,12.87-.4,1.57-.22,2.94.39,4.35.97,2.23,1.13,4.6.51,6.87-1.17,4.25-1.22,8.45-.78,12.83.64,6.39,1.79,12.75-.51,19.22-1.4,3.94.44,8.22.61,12.36.46,10.84-1.27,21.56-1.14,32.41.33,27.93.15,55.87-.03,83.81-.11,16.3-1.27,32.57-2.53,48.83-.32,4.11-2.28,5.36-5.69,4.71-3.43-.66-8.64.2-9.43,1.15-4.63,5.57-7.16,1.51-11.55-.24-5.41-2.16-12.27-1.57-17.97,1.01-5.05,2.29-9.46,3.33-14.41-.07-2.07-1.42-5.08-.5-7.51-.63-5.2-.27-10.48-2.2-15.75-.28-4.95,1.8-9.77-1.05-14.44-.77-6.47.39-12.89,0-19.32.07-18.2.22-36.41-.04-54.61.01-13.58.04-27.2-.46-40.74-.05-16.57.5-33.13.05-49.68.2-14.1.13-28.21.73-42.31.28-8.37-.27-9.89-2.48-9.41-10.79.47-8.26.08-16.56.42-24.83.61-14.96-.69-29.92.34-44.88.24-3.5.5-7.4-2.3-10.43-1.55-1.67-.8-3.63-.02-5.14,3.04-5.88.85-12.15,1.62-18.19.31-2.46-1.4-2.78-3.22-1.5-2.71,1.9-5.74,3.36-7.43-.57-1.39-3.22-1.55-6.22,2.48-9.25,3.53-2.66,5.27-7.84,7.47-12.07,1-1.92-1.2-2.35-2.41-3.08-3.09-1.88-4.45-4.63-1.73-7.36,8.42-8.44,5.18-19.14,5.21-28.81.02-6.51.8-13.12-.08-19.72-.46-3.45-2.53-5.16-4.94-5.03-3.64.2-3.53-1.57-3.24-3.89.28-2.31,1.03-4.56-1.39-6.34-1.09-.8-.93-2.24-.05-3.14,2.79-2.83,2.84-7.42,6.54-9.71,1.59-.99,2.46-2.92,2.14-4.82-.84-5.04.19-9.85,1.13-14.75.72-3.71-.48-7.26-2.4-10.5-1.5-2.53-1.8-4.86.53-7.23,2.02-2.06,2.5-5.34,1.81-7.51-3.1-9.82.46-19.53-.1-29.28-.19-3.33-.76-6.59-.91-9.9-.28-6,1.99-7.74,7.84-8,8.83-.4,17.62,1,26.51-.28,3.62-.52,7.75.16,11.65.31,4.49.18,8.59-.72,12.38-2.97,2.03-1.21,3.48-1.05,5.35.48,4.64,3.79,10.67,3.61,15.36-.02,2.4-1.86,5.97-1.39,8.08-4.2.76-1.01,2.34.17,3.47,1.02,4.46,3.38,7.02,2.64,11.12-1.55,2.14-2.18,4.67-4.1,6.97-6.2,1.44-1.32,3.12-.72,4.62.23,1.4.89,2.04,1.99,1.52,3.78-.52,1.81-3.31,3.6-1.52,5.27,2.22,2.06,5.08,3.82,8.52,3.54,1.33-.11,2.66-.13,5.12-.24Zm65.29,305.6s0,.09,0,.14c2.65,0,5.31,0,7.96,0,2.07,0,3.07-.19,2.78-3.11-.56-5.64-.09-11.38-.1-17.07,0-12.75,0-25.49-.09-38.24-.04-6.14-.57-12.35-.25-18.42.65-12.03-.05-24.04.27-36.06.3-11.03,1.8-22.25-1.49-33.19-.2-.67.51-1.57.58-2.39.82-9.58,3.07-19.24-1.55-28.53-.97-1.95-.65-3.8.22-5.75.81-1.8,1.39-3.73,1.83-5.66.53-2.32-.5-3.28-2.96-3.28-17.21.04-34.41.37-51.62-.15-10.05-.3-20.11.99-30.19.1-2-.18-4.81-.37-4.47,3.06.52,5.32.04,10.62-.29,15.91-.89,14.03,1.46,27.98.6,42.07-.96,15.72-.46,31.54-.73,47.31-.05,2.85,1.31,5.41.84,8.37-1.73,10.86-.4,21.82-.7,32.74-.33,11.89.84,23.81-.37,35.72-.51,5.06,1.95,7.37,7.28,6.69,9.74-1.25,19.48-.36,29.23-.27,14.41.12,28.82.03,43.22.03Zm102.52-93.8c.57-1.84,2.14-2.8,3.73-2.91,4.1-.3,4.85-2.86,5.63-6.29,1.28-5.64-.91-10.89-1.03-16.34-.05-2.15,2.87-6.61-3.26-5.49-.9.16-.79-1.18-.76-2.02.07-1.83.07-3.64,1.04-5.32.5-.86.86-1.94-.11-2.73-.96-.79-1.88-.08-2.73.4-2.18,1.22-4.4,2.38-6.5,3.73-13.83,8.86-25.57,20.12-36.14,32.54-7.18,8.43-14.49,16.76-21.18,25.63-4.89,6.48-9.51,13.34-15.71,18.65-3.52,3.02-4.26,6-2.59,10.29,5.95-8.48,13.32-15.39,19.98-22.93,9.24-10.46,19.59-19.79,29.53-29.54,6.25-6.14,13.37-11.35,20.14-16.93,3.3-2.72,5.89-5.98,10.78-5.33-.1.6-.57,1.52-.3,2.07,2.56,5.26-.04,7.74-4.53,10.11-6.92,3.65-11.7,9.79-16.53,15.8,3.79-1.02,7.43-2.44,9.76-5.44,1.58-2.04,2.64-2.17,4.83-1.27,1.41.58,2.93.54,3.24,2.43.43,2.58-1.66,3.18-3.19,4.45-7.52,6.27-15.55,11.94-22.35,19.04-.71.74-2.28,1.43-1.13,2.8.93,1.11,2.75,1.53,3.62.59,2.61-2.82,6.75-3.06,9.28-5.41,5.99-5.54,13.79-8.22,19.92-13.44,1.02-.87,1.75-.08,2.52.64,1.02.96.71,3.01,2.64,3.28.48-4.72-3.6-9.96-8.58-11.05Zm-48.28-110.14c1.78-2.5,4.93-2.93,7.24-4.59,3.99-2.88,5.36-8.64,11.04-9.57,3.35-.55,4.4-4.45,6.79-5.85,6.23-3.66,11.46-8.37,16.77-13.1.95-.84,3.73-3.27,3.44-1.09-.68,5.11,5.87,1.6,5.23,5.43,6.86-2.51,3.64,3.55,3.88,5.36.24,1.84-1.4,4.56-3.05,5.82-1.27.97-3.2-1.1-4.68-2.08-2.7-1.78-4.75-.19-6.81,1.21-14.44,9.77-27.72,20.83-38.3,34.83-5.98,7.92-11.99,15.81-18.51,23.3-1.18,1.36-1.98,2.97-3.54,4.11-4.77,3.48-6.7,9.3-10.72,13.45-.92.95-1.7,2.9-.29,4.08,1.56,1.31,2.73-.28,3.74-1.31,8.76-8.93,17.39-18.01,26.28-26.81,7.24-7.16,14.65-14.17,22.27-20.92,3.26-2.89,5.47-6.78,8.71-9.37,4.83-3.88,7.92-10.12,15.11-11.2,1.67-.25,3.17-2.21,5.66-1.95,3.86.41,7.49-3.62,7.43-7.52-.07-4.47-.29-8.96.03-13.41.29-3.98,1-9.42-1.54-11.15-3.8-2.59-8.41.95-12.36,3.04-.29.15-.55.37-.82.57-10,7.63-20.4,14.77-29.73,23.26-5.03,4.58-9.64,9.53-13.26,15.46Zm41.86-88.08c-6.31-.29-11.73-.56-17.16-.75-.61-.02-1.41.22-1.82.64-4.5,4.6-8.28,10.26-15.86,10.09-.64-.01-1.31.94-1.97,1.45-6.61,5.06-11.63,11.77-18.07,17.06-7.93,6.51-15.44,13.53-23.02,20.46-7.83,7.16-16.65,13.1-24.74,19.98-5.13,4.37-10.87,9.24-18.9,8.46-4.23-.41-5.62-1.39-4.89-5.68.2-1.2.65-2.34-.7-3.06-1.25-.66-2.15-.06-3,.95-1.87,2.23-3.47,4.95-5.83,6.43-4.25,2.66-7.8,6.08-11.64,9.2-.88.72-2.23,1.24-1.68,2.68.48,1.25,1.65,1.42,2.94,1.29,9.22-.92,18.46.17,27.68-.23,4.96-.22,9.92,1.08,14.88-.13,1.64-.4,3.13-.75,1.81-2.87-2.18-3.48-.23-5.72,1.99-8.29,9.23-10.68,20.68-18.98,30.71-28.8,9.12-8.93,19.1-16.96,28.06-26.09,5.34-5.44,11.26-10.14,18.6-13.66-.89,2.63-1.67,4.75-2.32,6.91-.34,1.11-3.01,1.46-1.36,3.03,1.31,1.24,2.88.05,3.97-.97,4.05-3.79,8.93-6.34,13.66-9.06,3.44-1.98,5.92-4.74,8.64-9.05Zm-195.59,252.85c-2.92.38-4.23,1.95-5.67,3.28-8.27,7.67-13.82,17.37-19.7,26.8-1.38,2.22-2.88,3.96-5.57,2.44-2.66-1.5-4.36-3.72-2.79-7.02.49-1.04,1.19-1.99,1.82-2.97,5.68-8.79,11.13-17.74,17.98-25.72.62-.72,1.68-1.55.65-2.51-.94-.87-1.89.01-2.56.71-6.37,6.73-13.02,13.27-18.14,21.03-4.16,6.32-7.7,13.05-11.55,19.58-.49.83-1.59,1.53-1.06,2.58.6,1.19,1.97,1.12,3.11,1.11,8.65-.02,17.31-.09,25.96-.13,1.63,0,3.3.26,4.82-1.53-4.53-1.87-3.97-4.97-2.24-8.47.95-1.93,1.87-3.87,2.89-5.77,4.06-7.55,9.52-14.39,12.06-23.41Zm138.12-251.84c-.05-.27-.1-.53-.15-.8-.46-.16-.92-.35-1.39-.46-11.14-2.54-22.42.49-33.61-.77-1.14-.13-3.16.1-3.57,2.59-.62,3.78-3.15,6.44-6.68,7.99-13.84,6.09-23.39,17.69-34.65,27.08-.84.7-1.29,1.88-2.42,3.57,3.51-1.45,5.44-3.25,7.51-4.9,9.19-7.3,17.47-15.86,28.51-20.58,1.49-.64,3.7-2.26,4.53-.86,2.65,4.46,5.46,1.31,7.31.05,9.85-6.67,22.79-5.29,32.3-12.68.52-.4,1.52-.17,2.29-.24Zm1.16,2.88c-.76,1.12-1.3,2.37-2.21,3.2-13.06,11.99-25.96,24.18-39.38,35.77-6.15,5.31-14.11,8.52-18.28,16.11-.18.32-.85.65-1.19.57-2.94-.73-3.61,2.69-5.89,3.3-.38.1-2.5,1.72-1.35,3.19,1.26,1.62,2.52.41,3.86-.41,10.97-6.67,20.62-15.03,30.49-23.13,12.48-10.26,23.75-21.73,34.75-33.51,2.11-2.26,1.57-3.68-.81-5.09Zm-5.82,204.95c.29.3.58.6.87.91,4.36-4.82,8.82-9.55,13.07-14.47,7.83-9.04,15.89-17.85,25.09-25.53,9.05-7.54,18.17-15,27.26-22.49.78-.64,1.79-1.32,1.12-2.41-.66-1.08-1.73-.56-2.66-.12-1.05.5-2.18.86-3.17,1.45-15.64,9.34-28.84,21.55-41.4,34.63-8.11,8.45-13.35,18.78-20.2,28.03Zm17.68,82.76c2.78-.41,5.17-.7,6.72-3.22,2.25-3.67,4.72-7.22,7.27-10.7,6.95-9.45,14.65-18.34,21.11-28.16.58-.89,2.19-1.72.86-2.86-1.2-1.03-1.99.53-2.87,1.16-8.25,5.97-15.25,13.26-21.92,20.88-5.07,5.8-8.31,12.82-12.44,19.25-1.03,1.61-1.69,3.62,1.27,3.65Zm43.65-16.96c2.08-1.33,4.17-2.64,6.23-3.99,1.89-1.24,4.05-2.26,6.05-.96,2.32,1.51,2.78.26,3.5-1.47.91-2.19,1.37-4.35,1.26-6.77-.24-5.28-.17-10.58-.18-15.88-.02-6.79-.01-13.58,0-20.38,0-1.06-.2-2.1-1.32-2.38-.49-.13-1.37.26-1.7.69-2.88,3.84-5.97,7.56-8.4,11.67-1.96,3.3-.41,5.56,3.49,6.13,4.28.62,6.28,3.56,5.19,7.84-2.48,9.73-9.31,16.91-14.12,25.51Zm-252.25-19.01c-6.98,7.97-11.73,10.58-20.5,8.28-4.74-1.24-4.3,1.27-4.4,3.6-.29,6.61-.35,13.23-.21,19.85.03,1.5-.98,4.17,1.78,4.41,2.3.2,4.03-1.21,4.82-3.54,2.91-8.6,8.29-15.78,13.35-23.14,2.06-2.99,4.02-6,5.16-9.47Zm260.42-164.72c.04-1.03-.08-1.77-.83-1.92-1.53-.32-2.43.87-3.42,1.7-9.97,8.37-19.64,17.04-28.54,26.57-4.85,5.18-11.02,9.07-15.04,15.1-.53.8-1.66,1.61-.9,2.55.97,1.2,2.21.39,3.04-.4,5.66-5.41,12.81-9.14,17.56-15.59,4.8-6.52,11.97-10.63,17.22-16.86,2.1-2.49,3.67-7,8.38-7.45,1.01-.09,1.79-2.56,2.52-3.69Zm-195.46,177.12c-7.7,5.84-10.86,14.88-16.39,22.12-.87,1.14.1,1.86,1.29,1.83,4.29-.13,8.6-.16,12.87-.58,2.32-.23,2.96-2.36,2.26-4.18-1.35-3.55-.06-6.85.38-10.22.38-2.92,1.43-5.82-.41-8.96Zm126.35-94.56c-.24-.12-.49-.24-.73-.37-3.26,3.25-6.64,6.39-9.71,9.81-.96,1.06-2.2,2.13-2.01,4.23.43,4.86.34,9.77.34,14.65,0,.9-1.13,1.99.09,2.65,1.51.81,1.86-.89,2.65-1.61,3.58-3.27,4.59-8.37,8.18-11.58,2.14-1.91,2.68-3.41.57-5.78-2.73-3.07-4.11-6.44-.16-9.82.51-.44.53-1.44.78-2.18Zm-62.86-173.88c-7.02-.33-14.05-.66-21.07-1.01-1.05-.05-2.04.04-2.64,1-.45.72.09,1.11.61,1.63,3.81,3.82,3.94,6.82.42,10.81-1.87,2.11-3.91,4.07-5.84,6.13-.57.6-1.15,1.4-.57,2.2.6.84,1.53.43,2.29.12,2.07-.84,3.33-2.67,4.98-4.04,7-5.81,10.61-16.17,21.83-16.84Zm122.46,121.71c-.35-.41-.69-.83-1.04-1.24-18.14,12.66-34.64,27.29-50.4,42.81.28.33.55.67.83,1l50.61-42.57Zm-276.18,114.07c3.8-3.53,5.98-6.76,8.03-10.1.75-1.23,1.41-2.49-.21-3.37-4.27-2.32-4.36-5.77-2.93-9.77.58-1.61.35-2.95-1.67-3.35-2.18-.43-3.18.66-3.19,2.65-.05,7.66-.02,15.31-.02,23.95Zm132.37-175.77c-9.21,9-19.3,17.18-26.86,28.65,2.77.18,4.88.44,6.98.41,1.73-.03,3.08-.96,2.25-2.87-1.39-3.21.75-4.9,2.47-6.91,5.31-6.21,11.14-12,15.16-19.28Zm160.06,216.64c-5.55,2.12-15.12,10.02-16.93,13.3-.68,1.24-.37,2.14.8,2.2,2.73.15,5.86,1.54,8.1-.68,3.92-3.87,6.41-8.66,8.04-14.82Zm-91.41-194.25c-3.86,2.62-6.8.97-9.2-1.89-1.1-1.31-1.82-1.8-3.1-.54-2.11,2.09-4.23,4.17-6.26,6.33-.86.92-1.36,1.96.35,2.68,5.26,2.22,14.9-1,18.22-6.58Zm-165.14,103.54c10.41-13.65,22.85-25.47,33.96-38.43-13.01,11.36-26.26,22.51-33.96,38.43Zm192.78,65.43c-2.12-.46-2.42.74-3.14,1.32-6.68,5.34-10.45,13.37-17.02,18.7-3,2.43-4.39,4.77-3.41,8.74,7.66-9.61,16.53-18.19,23.57-28.76Zm-141.44-56.96c-3.7-1.9-6.7-2.47-9.57,1.39-2.57,3.45-5.89,6.33-8.48,9.76-2.11,2.79-5.47,4.56-7.26,8.95,9.96-5.72,15.56-15.26,25.32-20.1Z"/><path d="m494.43,729.05c-7.18-1.47-13.81,1.62-20.62.74-.98-.13-2.01.12-2.98-.06-3.17-.58-6.47-2.25-5.91-5.52.52-3.1,4.29-5.07,7.35-4.35,5.39,1.26,10.86.31,16.25,1.56,3.2.74,5.9,3.01,9.37,2.79.48-.03,1.3,1.04,1.5,1.74.31,1.08-.42,1.97-1.43,2.3-1.24.41-2.56.59-3.53.8Z"/><path d="m491.19,796.2c7.06-.33,13.55-3.83,20.84-3.15,2.04.19,2.32,1.39,2.3,3.09-.03,1.97.57,4.15-2.19,4.84-3.22.8-6.41,1.93-9.68,2.23-3.05.28-7.26,2.15-7.95-3.6-.16-1.36-2.96-.71-3.33-3.41Z"/><polygon points="155.89 250.15 155.48 250.25 155.08 250.12 155.5 249.88 155.89 250.15"/><path d="m369.99,398.84c4.26-.06,8.31,3.56,8.46,7.55.23,6.22-6.58,14.86-11.71,14.85-4.98,0-8.97-3.9-9-8.77-.04-7.08,5.77-13.53,12.25-13.62Z"/></svg>